<?xml version="1.0" encoding="UTF-8" standalone="no"?> <svg xmlns="http://www.w3.org/2000/svg" viewBox="0 0 782 272"> <path fill="#000000" d=" M 359.81 0.00 L 360.56 0.00 L 393.74 26.94 Q 394.78 27.79 393.47 28.09 Q 330.54 42.26 270.81 64.56 Q 247.59 73.23 220.20 86.22 Q 187.94 101.52 156.55 118.54 Q 131.44 132.15 106.25 145.62 A 0.42 0.28 -29.6 0 1 105.77 145.59 Q 105.65 145.42 105.93 145.18 Q 150.74 106.85 199.30 73.44 Q 208.09 67.39 216.05 62.52 Q 272.56 27.94 333.81 7.06 Q 344.60 3.38 359.81 0.00 Z"></path> <path fill="#030100" d=" M 479.25 74.88 Q 481.91 76.70 478.55 76.76 Q 477.54 76.78 476.96 76.85 Q 264.98 102.87 75.49 200.79 Q 74.30 201.41 74.81 200.62 Q 74.92 200.45 75.11 200.30 Q 142.91 148.27 218.06 107.56 Q 236.49 97.57 255.44 88.63 Q 338.59 49.40 429.68 35.22 A 1.43 1.41 -29.7 0 1 430.80 35.52 Q 454.68 54.84 477.93 73.92 Q 478.33 74.25 479.25 74.88 Z"></path> <path fill="#000000" d=" M 553.61 116.72 Q 554.58 117.48 553.35 117.49 Q 506.87 118.18 461.24 124.94 Q 421.80 130.79 382.89 139.45 Q 226.94 174.15 79.42 235.40 Q 40.34 251.62 2.46 270.49 Q 2.38 270.53 2.19 270.69 Q 2.04 270.81 1.93 270.73 A 0.18 0.14 -39.4 0 1 1.99 270.46 Q 105.11 208.71 216.37 163.20 Q 277.78 138.08 341.57 119.86 Q 389.72 106.11 439.06 97.55 Q 472.01 91.83 514.25 89.50 Q 516.60 89.37 518.14 90.01 Q 518.45 90.14 521.20 92.19 Q 537.51 104.28 553.61 116.72 Z"></path> <path fill="#000000" d=" M 346.73 221.76 Q 346.33 220.86 345.94 221.77 L 327.27 264.60 A 0.80 0.76 -77.6 0 1 326.56 265.08 L 308.80 265.23 A 0.81 0.79 -90.0 0 1 308.00 264.41 Q 308.02 261.93 308.99 259.84 Q 325.49 224.28 342.10 188.77 A 0.99 0.92 -80.9 0 1 342.80 188.22 Q 346.09 187.64 350.26 188.45 A 1.25 1.25 -7.0 0 1 351.16 189.15 Q 367.75 225.13 384.46 261.30 Q 385.21 262.93 385.04 264.45 A 0.92 0.91 3.5 0 1 384.13 265.25 L 366.81 265.25 A 1.54 1.52 78.2 0 1 365.41 264.32 L 346.73 221.76 Z"></path> <path fill="#000000" d=" M 415.12 256.52 L 411.52 264.48 A 1.34 1.30 12.0 0 1 410.31 265.24 L 394.19 265.21 Q 390.84 265.21 392.25 262.14 L 426.10 188.58 A 0.68 0.68 -78.0 0 1 426.70 188.19 L 433.74 188.00 A 1.25 1.24 -12.8 0 1 434.91 188.73 L 467.47 258.92 Q 468.18 260.45 468.66 262.07 Q 469.44 264.77 468.18 265.22 Q 468.10 265.25 465.81 265.26 Q 458.19 265.29 450.56 265.19 A 0.83 0.77 -11.9 0 1 449.83 264.75 L 446.08 256.66 A 1.54 1.34 75.4 0 0 444.79 255.78 L 415.80 256.04 A 0.81 0.74 -77.3 0 0 415.12 256.52 Z M 430.17 219.88 L 422.25 238.02 A 0.70 0.70 -78.3 0 0 422.89 239.00 L 438.56 239.00 A 0.39 0.39 77.7 0 0 438.91 238.45 L 430.75 219.87 Q 430.46 219.22 430.17 219.88 Z"></path> <path fill="#000000" d=" M 501.58 225.21 Q 501.57 226.52 502.51 225.61 Q 520.68 207.80 538.28 190.68 Q 539.95 189.05 541.76 188.90 Q 543.96 188.71 546.74 189.23 A 0.62 0.62 -85.0 0 1 547.25 189.84 L 547.07 264.56 A 0.54 0.51 -89.4 0 1 546.56 265.09 L 527.74 265.03 A 0.55 0.51 88.8 0 1 527.23 264.50 Q 526.68 247.08 527.21 228.89 Q 527.24 227.79 526.46 228.56 L 489.30 264.84 A 1.42 1.23 18.2 0 1 488.44 265.20 L 482.64 265.49 A 0.85 0.82 -1.3 0 1 481.75 264.67 L 481.75 189.77 A 0.52 0.52 -90.0 0 1 482.27 189.25 L 500.86 189.25 A 0.88 0.86 0.3 0 1 501.74 190.12 L 501.58 225.21 Z"></path> <path fill="#000000" d=" M 513.67 206.42 Q 511.18 208.81 508.66 211.48 Q 507.50 212.70 507.50 211.02 L 507.50 189.67 A 0.67 0.67 -0.2 0 1 508.17 189.00 L 530.39 189.00 Q 531.77 189.00 530.78 189.95 Q 522.47 197.97 513.67 206.42 Z"></path> <path fill="#000000" d=" M 672.81 247.71 Q 686.56 248.36 700.60 247.80 A 0.87 0.87 -1.0 0 1 701.50 248.67 L 701.50 264.01 A 1.24 1.24 0.0 0 1 700.26 265.25 L 653.68 265.25 A 0.68 0.68 89.9 0 1 653.00 264.57 L 653.00 190.01 A 0.83 0.82 0.0 0 1 653.83 189.19 L 699.93 189.31 A 0.51 0.51 0.0 0 1 700.44 189.82 L 700.50 205.84 A 0.69 0.67 -0.4 0 1 699.82 206.51 L 672.93 206.67 A 0.57 0.55 -87.6 0 0 672.39 207.18 Q 671.93 211.95 672.50 216.70 A 0.56 0.56 -3.4 0 0 673.06 217.19 L 697.22 217.25 A 0.87 0.86 -1.7 0 1 698.09 218.06 Q 698.56 225.86 698.03 234.01 A 0.54 0.52 1.7 0 1 697.49 234.50 L 673.18 234.68 A 0.52 0.52 0.0 0 0 672.67 235.19 L 672.32 247.19 A 0.51 0.51 1.7 0 0 672.81 247.71 Z"></path> <path fill="#000000" d=" M 610.93 234.81 L 588.88 234.75 A 0.88 0.88 0.0 0 0 588.00 235.63 L 588.00 264.37 A 0.88 0.88 0.0 0 1 587.12 265.25 L 568.81 265.25 A 0.56 0.56 -89.8 0 1 568.25 264.69 L 568.25 189.80 A 0.55 0.55 89.9 0 1 568.80 189.25 L 587.44 189.31 A 0.51 0.50 90.0 0 1 587.94 189.82 L 588.00 215.87 A 0.88 0.87 -90.0 0 0 588.87 216.75 L 610.58 216.75 A 0.92 0.92 90.0 0 0 611.50 215.83 L 611.50 189.75 A 0.50 0.50 0.0 0 1 612.00 189.25 L 631.00 189.25 A 0.50 0.50 0.0 0 1 631.50 189.75 L 631.44 264.45 A 0.80 0.80 0.2 0 1 630.64 265.25 L 612.00 265.25 A 0.50 0.50 0.0 0 1 611.50 264.75 L 611.44 235.31 A 0.51 0.50 0.0 0 0 610.93 234.81 Z"></path> <path fill="#000000" d=" M 739.81 246.70 L 739.75 264.37 A 0.88 0.87 -90.0 0 1 738.88 265.25 L 720.91 265.25 A 0.66 0.66 89.9 0 1 720.25 264.59 L 720.25 189.91 A 0.66 0.66 -89.5 0 1 720.91 189.25 Q 737.87 189.25 754.50 189.25 Q 763.32 189.25 769.91 194.12 Q 775.91 198.56 778.97 206.47 Q 783.36 217.78 778.68 229.36 Q 776.37 235.06 772.50 238.73 Q 768.23 242.80 762.54 244.56 Q 758.92 245.69 751.72 245.74 Q 746.35 245.78 740.77 245.75 A 0.95 0.95 0.3 0 0 739.81 246.70 Z M 759.81 224.56 Q 762.96 219.50 761.29 213.24 Q 760.40 209.90 757.88 208.09 Q 756.02 206.75 752.30 206.59 Q 746.93 206.37 740.84 206.53 A 1.10 1.08 -1.1 0 0 739.77 207.62 L 739.92 227.57 A 0.54 0.52 1.8 0 0 740.43 228.09 Q 744.29 228.30 748.14 228.29 Q 754.32 228.28 754.35 228.27 Q 757.83 227.76 759.81 224.56 Z"></path> </svg> 